Coordinates
datacolumns 6
datarows 137
range 24.41 25.77
inDegrees=yes
Units are S.I. units (second, meters, Newtons, ...)
If the header above contains a line with 'inDegrees', this indicates whether rotational values are in degrees (yes) or radians (no).
endheader
time	foot_tx	hip_flexion_r	knee_angle_r	ankle_angle_r	lumbar
24.41	0.27302532	62.34412956	-56.48683753	-7.11842708	-11.81093215
24.42	0.27302196	62.46741528	-56.48274373	-7.11605645	-11.91274017
24.43	0.2730108	62.60738758	-56.47775803	-7.11388153	-12.02791786
24.44	0.27299347	62.764697	-56.47150476	-7.11206615	-12.15705732
24.45	0.27297054	62.9399538	-56.46363975	-7.11060713	-12.30056877
24.46	0.27294275	63.13371874	-56.45392157	-7.10942474	-12.4586787
24.47	0.27291097	63.34649078	-56.44218949	-7.10836612	-12.63143337
24.48	0.27288292	63.65252666	-56.42736631	-7.112863	-12.73026785
24.49	0.2728424	63.90171858	-56.41217434	-7.1104905	-12.93609198
24.5	0.27280888	64.23143546	-56.39328805	-7.11279212	-13.08424634
24.51	0.27277118	64.51989794	-56.37503897	-7.10873503	-13.32121221
24.52	0.27273958	64.92205719	-56.35424558	-7.11006749	-13.46247427
24.53	0.27270834	65.31160331	-56.33345658	-7.10693045	-13.66021615
24.54	0.27267471	65.72823088	-56.31472691	-7.10027552	-13.86817149
24.55	0.27264592	66.17640352	-56.29432906	-7.09265508	-14.08275099
24.56	0.27262473	66.6562396	-56.27339898	-7.08359922	-14.30475389
24.57	0.27259987	67.16628296	-56.2543972	-7.07058454	-14.53838507
24.58	0.27258044	67.70931457	-56.2357208	-7.05521616	-14.78106168
24.59	0.2725662	68.28588103	-56.21517897	-7.03841854	-15.03417283
24.6	0.27254864	68.90254079	-56.19610654	-7.01785383	-15.29097079
24.61	0.27252756	69.56019665	-56.17948162	-6.9926605	-15.55041949
24.62	0.27251151	70.26699364	-56.15951827	-6.96658847	-15.803085
24.63	0.27248536	71.02496193	-56.1408976	-6.93541412	-16.04650727
24.64	0.27245935	71.8451872	-56.12050665	-6.90149397	-16.26469288
24.65	0.27242685	72.72788916	-56.09941495	-6.86279943	-16.45549687
24.66	0.27237735	73.68813593	-56.08097796	-6.81653286	-16.59736701
24.67	0.27231836	74.72455864	-56.06438888	-6.76218096	-16.68667326
24.68	0.27223837	75.84742678	-56.04970471	-6.69815752	-16.70668247
24.69	0.27216097	77.05514047	-56.03432188	-6.62593827	-16.65020968
24.7	0.27206457	78.34934868	-56.02131961	-6.54063941	-16.51013968
24.71	0.27195632	79.72056846	-56.01046774	-6.4406146	-16.28929848
24.72	0.27184038	81.16816216	-56.00174974	-6.32469569	-15.97916703
24.73	0.27171971	82.67238205	-55.99502981	-6.19026207	-15.5955948
24.74	0.27159909	84.22132749	-55.99050269	-6.03576455	-15.14377576
24.75	0.27148363	85.79697946	-55.99038045	-5.85825347	-14.63714797
24.76	0.27137723	87.37894529	-55.99500994	-5.65633248	-14.09255424
24.77	0.27128965	88.94842694	-56.00650479	-5.42850223	-13.52512791
24.78	0.27122334	90.48496309	-56.0283607	-5.17246055	-12.95338904
24.79	0.27118954	91.97758257	-56.06161398	-4.88911561	-12.38393734
24.8	0.27119006	93.40712134	-56.11361283	-4.5753223	-11.83540277
24.81	0.27123163	94.76020092	-56.18749534	-4.23147908	-11.31921731
24.82	0.27132112	96.03203676	-56.28746882	-3.85829874	-10.83664248
24.83	0.27145838	97.21041293	-56.4204	-3.45456704	-10.39911637
24.84	0.27164908	98.28732852	-56.5929863	-3.02000394	-10.01347795
24.85	0.27189177	99.26280907	-56.80919357	-2.55557739	-9.6757324
24.86	0.27218658	100.1294897	-57.07527048	-2.06088149	-9.39238486
24.87	0.27253201	100.8868305	-57.39443996	-1.53687886	-9.16058519
24.88	0.27292489	101.5336107	-57.7687312	-0.98478497	-8.97867596
24.89	0.27336306	102.0715931	-58.19651088	-0.40716686	-8.84063572
24.9	0.27383654	102.4920187	-58.68137409	0.19751068	-8.75434704
24.91	0.27434655	102.8054658	-59.21262277	0.82246634	-8.70228278
24.92	0.27488496	102.9896015	-59.7891203	1.46820222	-8.71048673
24.93	0.27544356	103.1148206	-60.39197365	2.12338357	-8.68394055
24.94	0.27601764	103.1068759	-61.02174399	2.79222071	-8.71735589
24.95	0.27660859	103.0084962	-61.65991294	3.46428682	-8.75246994
24.96	0.27720267	102.8173815	-62.29610375	4.13688118	-8.79247852
24.97	0.27779779	102.5352324	-62.9168677	4.8042439	-8.83559412
24.98	0.27838733	102.1740269	-63.50977825	5.46125881	-8.86637272
24.99	0.27897406	101.7298201	-64.06049915	6.10180542	-8.89348266
25	0.27954037	101.2178355	-64.56312598	6.72411009	-8.89930591
25.01	0.28009403	100.6313857	-65.00267472	7.32111304	-8.89638369
25.02	0.28062815	99.97440612	-65.37292024	7.89029282	-8.88313913
25.03	0.28114089	99.25133382	-65.66666311	8.42804613	-8.85769641
25.04	0.2816305	98.46243405	-65.87886063	8.93183458	-8.82339659
25.05	0.28209621	97.60931862	-66.0059291	9.3995531	-8.78160566
25.06	0.28253777	96.69239495	-66.04588354	9.82979859	-8.73494923
25.07	0.28295565	95.7117877	-65.99819154	10.22175732	-8.68596877
25.08	0.28335099	94.66994762	-65.86351595	10.57506002	-8.63405909
25.09	0.28372567	93.56673594	-65.64327371	10.88967596	-8.58157718
25.1	0.28407923	92.40385324	-65.3414274	11.16728097	-8.52848172
25.11	0.28441519	91.1803178	-64.96029907	11.40818992	-8.47799845
25.12	0.28473613	89.90355688	-64.50358012	11.61319687	-8.4225242
25.13	0.28504283	88.57018565	-63.97607744	11.78467637	-8.36866779
25.14	0.28533554	87.18363544	-63.38214752	11.92427967	-8.31406068
25.15	0.28561481	85.74627701	-62.72597515	12.03374194	-8.25793555
25.16	0.2858823	84.2589619	-62.01163928	12.11473072	-8.2013999
25.17	0.28613671	82.7230009	-61.24311326	12.16925066	-8.14508471
25.18	0.28637788	81.14143315	-60.42375436	12.19876477	-8.08724293
25.19	0.28660603	79.51720111	-59.55586131	12.20415248	-8.02623873
25.2	0.28682068	77.84757857	-58.64105643	12.18628479	-7.96710525
25.21	0.28702062	76.14069495	-57.68158899	12.14618611	-7.90140335
25.22	0.28720471	74.39354477	-56.67888876	12.08490194	-7.83420261
25.23	0.28737918	72.61396316	-55.6312989	12.00034878	-7.75656723
25.24	0.28753931	70.79595401	-54.54058711	11.8945362	-7.67733377
25.25	0.28768745	68.94781745	-53.40560525	11.76616085	-7.58720643
25.26	0.28782625	67.06906486	-52.225147	11.61439342	-7.48782052
25.27	0.28795861	65.16455909	-50.99872444	11.43854591	-7.37459762
25.28	0.28808413	63.22603902	-49.72634866	11.23916311	-7.25917184
25.29	0.28820691	61.26331571	-48.40648056	11.01441176	-7.13127068
25.3	0.2883273	59.2758017	-47.0391288	10.76419495	-6.99377428
25.31	0.28844515	57.25511481	-45.62609269	10.49002317	-6.859704
25.32	0.28856072	55.20654754	-44.16732185	10.19122758	-6.72514198
25.33	0.28867171	53.12278339	-42.66475022	9.86927902	-6.60197445
25.34	0.28877664	51.00716144	-41.12053753	9.5249389	-6.48973711
25.35	0.28887106	48.8567532	-39.53765509	9.15999107	-6.39560463
25.36	0.28895404	46.68266767	-37.91787315	8.77417363	-6.31034034
25.37	0.28901927	44.48553831	-36.26592714	8.37003025	-6.23793171
25.38	0.28906288	42.27090631	-34.58629898	7.94919609	-6.1776159
25.39	0.2890812	40.05270078	-32.88455086	7.51327717	-6.1197282
25.4	0.28906921	37.84231045	-31.16686447	7.06426713	-6.05866577
25.41	0.28902388	35.65606436	-29.44233427	6.60524855	-5.98535911
25.42	0.28894114	33.51537175	-27.72176383	6.13982737	-5.88691912
25.43	0.28881965	31.45243769	-26.01560579	5.67035188	-5.73889912
25.44	0.28865358	29.46900134	-24.33914404	5.20437578	-5.55426501
25.45	0.28844007	27.59066048	-22.70667542	4.74691767	-5.31873754
25.46	0.28818077	25.83736943	-21.13086134	4.3026222	-5.02350746
25.47	0.28787221	24.21261588	-19.62530347	3.87838674	-4.67706909
25.48	0.28751774	22.72489202	-18.19881801	3.47825437	-4.27859267
25.49	0.28711981	21.37323231	-16.85762394	3.1059746	-3.83400482
25.5	0.28668284	20.15034138	-15.60379032	2.76389384	-3.35198119
25.51	0.28621367	19.0468854	-14.4355573	2.45274812	-2.83869197
25.52	0.28571486	18.05093412	-13.34912089	2.17277947	-2.30084759
25.53	0.28519738	17.15251221	-12.33823161	1.92248766	-1.74072521
25.54	0.28466733	16.33855333	-11.39525528	1.700211	-1.16122502
25.55	0.28412897	15.59801754	-10.5133242	1.50410405	-0.56601568
25.56	0.28358758	14.91995625	-9.6856041	1.33204071	0.04127913
25.57	0.28305417	14.31890478	-8.90667744	1.18013222	0.68363555
25.58	0.2825226	13.73829142	-8.16877435	1.04824635	1.30262237
25.59	0.28200426	13.18473193	-7.46704953	0.93200354	1.90759579
25.6	0.2815036	12.66137529	-6.79951237	0.82899171	2.50168774
25.61	0.28101418	12.22771214	-6.1763627	0.74041799	3.14579996
25.62	0.2805503	11.79585284	-5.58092392	0.66011669	3.74315981
25.63	0.28010666	11.39328955	-5.01904876	0.5885057	4.31876347
25.64	0.27968955	11.01890713	-4.49021345	0.52391833	4.86909213
25.65	0.27929438	10.67023707	-3.99510007	0.46592481	5.38761619
25.66	0.27892451	10.34539289	-3.53294705	0.41338195	5.8712167
25.67	0.27857945	10.04301878	-3.10361986	0.3659202	6.31780782
25.68	0.2782563	9.76277776	-2.70753167	0.32382568	6.72720461
25.69	0.27796103	9.47203631	-2.33757293	0.28494781	7.06650453
25.7	0.27767725	9.26231771	-2.01086571	0.25437538	7.43406457
25.71	0.27742566	9.01900104	-1.7045005	0.22559017	7.71169318
25.72	0.2771899	8.80444852	-1.42933897	0.20237183	7.96799562
25.73	0.27697831	8.61365713	-1.18285824	0.18337637	8.20066115
25.74	0.27679028	8.44421589	-0.96371866	0.16857146	8.40981749
25.75	0.27662501	8.29410208	-0.77086	0.15800279	8.59603013
25.76	0.27648272	8.16168437	-0.60288537	0.15148166	8.7605731
25.77	0.27636443	8.0457874	-0.45848705	0.14889659	8.90544581
